<?xml version="1.0" encoding="utf-8"?>
<!-- Generator: Adobe Illustrator 25.4.1, SVG Export Plug-In . SVG Version: 6.00 Build 0)  -->
<svg version="1.1" id="Layer_1" xmlns="http://www.w3.org/2000/svg" xmlns:xlink="http://www.w3.org/1999/xlink" x="0px" y="0px"
	 viewBox="0 0 2451 758" style="enable-background:new 0 0 2451 758;" xml:space="preserve">
<style type="text/css">
	.st0{fill:url(#SVGID_1_);}
</style>
<path d="M649.6,88.2c16.7,3.2,29,8.8,37.1,16.8c8.6,8,12.9,17.4,12.9,28.1c0,17.6-5.1,30.5-15.3,38.5c-9.7,8-25.3,11.2-46.7,9.6
	c-48.4-3.7-86.2-6.1-113.6-7.2c-26.9-1.6-62.3-2.7-106.4-3.2c-19.9,98.4-38.1,197.3-54.8,296.8c-5.9,36.4-12.1,78.6-18.5,126.7
	c-6.4,47.6-10.7,86.1-12.9,115.5c-1.1,15.5-7.5,27.5-19.3,36.1c-11.8,8-26.1,12-42.7,12c-17.7,0-31.4-4.3-41.1-12.8
	c-9.7-8.6-14.5-19.8-14.5-33.7c0-12.8,1.9-34,5.6-63.4c4.3-29.9,9.1-61.2,14.5-93.8c5.9-32.6,10.5-61,13.7-85
	c5.9-40.6,12.6-81,20.1-121.1c7.5-40.1,15-78.1,22.6-113.9c1.6-8,3.5-17.1,5.6-27.3c2.1-10.7,4.6-22.5,7.3-35.3
	c-52.7,1.6-94,5.9-124.1,12.8c-30.1,7-51.6,16.8-64.5,29.7c-12.4,12.3-18.5,28.3-18.5,48.1c0,18.2,5.4,35.6,16.1,52.1
	c2.1,3.7,3.2,7.8,3.2,12c0,10.2-6.2,19.8-18.5,28.9c-11.8,8.6-24.2,12.8-37.1,12.8c-9.1,0-16.7-2.7-22.6-8
	c-10.7-9.1-19.6-21.9-26.6-38.5C3.5,304.5,0,285.3,0,263.9c0-45.5,14.8-81.8,44.3-109.1c30.1-27.8,75.5-48.1,136.2-61
	C241.8,81,320.2,74.6,415.9,74.6c59.1,0,106.1,1.1,141,3.2C592.4,79.9,623.3,83.4,649.6,88.2z"/>
<path d="M496.8,758c-20.4,0-34.9-10.7-43.5-32.1c-8.1-21.4-12.1-55.6-12.1-102.7c0-69.5,9.9-135.6,29.8-198.1
	c4.8-15.5,12.6-26.7,23.4-33.7c11.3-7.5,26.9-11.2,46.7-11.2c10.7,0,18.3,1.3,22.6,4c4.3,2.7,6.4,7.8,6.4,15.2
	c0,8.6-4,27.8-12.1,57.8c-5.4,21.4-9.7,40.1-12.9,56.1c-3.2,16-5.9,35.8-8.1,59.4c17.7-46,37.6-83.4,59.6-112.3
	c22-28.9,43.5-49.5,64.5-61.8c21.5-12.3,41.1-18.4,58.8-18.4c34.9,0,52.4,17.4,52.4,52.1c0,7-2.4,23.8-7.3,50.5
	c-4.3,21.4-6.4,34.8-6.4,40.1c0,18.7,6.7,28.1,20.1,28.1c15,0,34.4-11.8,58-35.3c7-7,14.2-10.4,21.8-10.4c7,0,12.4,3.2,16.1,9.6
	c4.3,5.9,6.4,13.9,6.4,24.1c0,19.8-5.4,35.3-16.1,46.5c-15,15.5-32.8,28.9-53.2,40.1c-19.9,10.7-41.1,16-63.7,16
	c-28.5,0-50.2-7.2-65.3-21.7c-14.5-14.4-21.8-34-21.8-58.6c0-8,0.8-16,2.4-24.1c1.1-10.7,1.6-17.9,1.6-21.7c0-8.6-3-12.8-8.9-12.8
	c-8.1,0-18.8,9.1-32.2,27.3c-12.9,17.6-25.8,41.2-38.7,70.6c-12.9,29.4-23.4,60.4-31.4,93c-5.9,25.1-12.9,42.2-21,51.3
	C525.6,753.7,513.5,758,496.8,758z"/>
<path d="M929.7,758c-34.9,0-60.4-12.3-76.6-36.9c-15.6-24.6-23.4-57.2-23.4-97.9c0-24.1,3-54.8,8.9-92.2
	c6.4-38,14.5-73.3,24.2-105.9c4.8-17.1,11.3-28.9,19.3-35.3c8.1-6.4,21-9.6,38.7-9.6c27.4,0,41.1,9.1,41.1,27.3
	c0,13.4-5.1,44.4-15.3,93c-12.9,58.8-19.3,98.7-19.3,119.5c0,16,2.1,28.3,6.4,36.9c4.3,8.6,11.6,12.8,21.8,12.8
	c9.7,0,21.8-6.7,36.3-20.1c14.5-13.4,33.8-34.5,58-63.4c6.4-7.5,13.7-11.2,21.8-11.2c7,0,12.4,3.2,16.1,9.6
	c4.3,6.4,6.4,15.2,6.4,26.5c0,21.4-5.1,38-15.3,49.7C1025.6,725.6,975.9,758,929.7,758z"/>
<path d="M1481.9,507.7c7,0,12.3,3.5,16.1,10.4c3.8,7,5.7,15.8,5.7,26.5c0,13.4-1.9,23.8-5.7,31.3c-3.8,7-9.7,11.8-17.7,14.4
	c-32.2,11.2-67.7,17.6-106.4,19.3c-10.7,44.4-31.2,80.2-61.2,107.5c-29.5,27.3-62.3,40.9-98.3,40.9c-54.3,0-93.8-20.6-118.5-61.8
	c-24.7-41.2-37.1-100.8-37.1-178.9c0-69,8.6-143.8,25.8-224.6c17.2-81.3,42.2-150.3,74.9-206.9C1192.8,28.6,1232.3,0,1277.9,0
	c24.7,0,44.6,10.7,59.6,32.1c15.1,20.9,22.6,48.1,22.6,81.8c0,43.8-8.3,87.4-25,130.7c-16.7,43.3-44.3,88.8-83,136.4
	c36,2.7,65.3,17.6,87.8,44.9c22.6,26.7,36,59.9,40.3,99.5c25.3-1.6,55.3-7,90.3-16C1473.8,508.3,1477.6,507.7,1481.9,507.7z
	 M1259.4,79.4c-10.8,0-22.6,16-35.5,48.1c-12.4,31.5-23.9,74.6-34.7,129.1c-10.7,54.5-18.8,114.2-24.2,178.9
	c35.5-64.7,63.7-121.7,84.6-170.9c21.5-49.7,32.2-93.8,32.2-132.3c0-17.1-2.2-30.2-6.4-39.3C1271.8,84,1266.4,79.4,1259.4,79.4z
	 M1217.5,673c16.7,0,31.4-7,44.3-20.9c12.9-13.9,21.5-34,25.8-60.2c-16.7-11.2-29.6-25.9-38.7-44.1c-8.6-18.2-12.9-37.4-12.9-57.8
	c0-7.5,1.1-17.6,3.2-30.5h-2.4c-22,0-40.6,11-55.6,32.9c-14.5,21.4-21.8,50.3-21.8,86.6c0,30.5,5.6,53.7,16.9,69.8
	C1188.2,665,1201.9,673,1217.5,673z"/>
<path d="M1817.7,575.1c7,0,12.4,3.2,16.1,9.6c4.3,6.4,6.4,15.2,6.4,26.5c0,21.4-5.1,38-15.3,49.7c-19.9,24.1-48.1,46.3-84.6,66.6
	c-36,20.3-74.7,30.5-116.1,30.5c-56.4,0-100.2-15.2-131.4-45.7c-31.2-30.5-46.8-72.2-46.8-125.1c0-36.9,7.8-71.1,23.4-102.7
	c15.6-32.1,37.1-57.5,64.5-76.2c27.9-18.7,59.4-28.1,94.3-28.1c31.2,0,56.2,9.4,74.9,28.1c18.8,18.2,28.2,43,28.2,74.6
	c0,36.9-13.4,68.7-40.3,95.5c-26.3,26.2-71.2,47.1-134.6,62.6c13.4,24.6,39,36.9,76.6,36.9c24.2,0,51.6-8.3,82.2-24.9
	c31.2-17.1,58-39.3,80.6-66.6C1802.4,578.9,1809.6,575.1,1817.7,575.1z M1614.6,458.8c-19.9,0-36.8,11.5-50.8,34.5
	c-13.4,23-20.2,50.8-20.2,83.4v1.6c31.7-7.5,56.7-18.7,75-33.7c18.3-15,27.4-32.4,27.4-52.1c0-10.2-3-18.2-8.9-24.1
	C1631.8,462,1624.2,458.8,1614.6,458.8z"/>
<path d="M2158.3,575.1c7,0,12.3,3.2,16.1,9.6c4.3,6.4,6.4,15.2,6.4,26.5c0,21.4-5.1,38-15.3,49.7c-23.1,28.3-48.4,51.6-75.8,69.8
	c-27.4,18.2-58.8,27.3-94.3,27.3c-109.6,0-164.4-76.7-164.4-230.2c0-23.5,0.8-47.3,2.4-71.4H1802c-16.1,0-27.1-2.9-33-8.8
	c-5.4-5.9-8.1-15.2-8.1-28.1c0-29.9,12.1-44.9,36.3-44.9h46c9.1-58.8,23.1-112.6,41.9-161.2c18.8-48.7,41.4-87.4,67.7-116.3
	c26.9-28.9,55.6-43.3,86.2-43.3c22.6,0,40.3,9.9,53.2,29.7c12.9,19.8,19.3,44.7,19.3,74.6c0,82.9-34.9,155.1-104.8,216.6h90.3
	c8.6,0,14.8,1.9,18.5,5.6s5.6,10.7,5.6,20.9c0,36.9-30.4,55.3-91.1,55.3h-98.3c-1.1,26.7-1.6,47.6-1.6,62.6
	c0,55.6,6.4,94.7,19.3,117.1c13.4,22.5,34.4,33.7,62.9,33.7c23.1,0,43.5-7,61.3-20.9c17.7-13.9,38.7-34.8,62.9-62.6
	C2143,578.9,2150.2,575.1,2158.3,575.1z M2017.2,130.7c-8.1,0-17.2,10.2-27.4,30.5c-9.7,19.8-19.1,47.6-28.2,83.4
	c-8.6,35.3-15.9,74.6-21.8,117.9c31.7-27.3,55.3-57.8,70.9-91.4c16.1-34.2,24.2-65.2,24.2-93C2035,146.5,2029.1,130.7,2017.2,130.7z
	"/>
<path d="M2275.6,758c-31.7,0-58.8-7.8-81.4-23.3c-22-16-38.7-36.9-50-62.6c-11.3-25.7-16.9-53.2-16.9-82.6
	c0-40.6,7.5-76.7,22.6-108.3c15.6-32.1,36.5-56.9,62.9-74.6c26.3-18.2,55.9-27.3,88.7-27.3c31.7,0,58.8,8,81.4,24.1
	c22.6,15.5,39.5,36.1,50.8,61.8c11.3,25.7,16.9,53.2,16.9,82.6c0,40.6-7.8,77-23.4,109.1c-15.6,31.5-36.8,56.4-63.7,74.6
	C2337.1,749.2,2307.9,758,2275.6,758z M2284.5,671.4c18.3,0,33.6-9.9,45.9-29.7c12.9-19.8,19.3-48.7,19.3-86.6
	c0-29.4-5.4-51.6-16.1-66.6c-10.8-15-23.6-22.5-38.7-22.5c-19.3,0-35.5,9.9-48.3,29.7c-12.4,19.3-18.5,48.1-18.5,86.6
	c0,30.5,5.4,52.9,16.1,67.4C2254.9,664.2,2268.4,671.4,2284.5,671.4z"/>
<linearGradient id="SVGID_1_" gradientUnits="userSpaceOnUse" x1="861.8353" y1="493.109" x2="1017.5887" y2="493.109" gradientTransform="matrix(1 0 0 -1 0 757.89)">
	<stop  offset="0" style="stop-color:#EE0979"/>
	<stop  offset="1" style="stop-color:#FF6A00"/>
</linearGradient>
<circle class="st0" cx="939.7" cy="264.8" r="77.9"/>
</svg>
